STARTFONT 2.1
FONT a12biluc
SIZE 12 78 78
FONTBOUNDINGBOX 13 13 0 -3
STARTPROPERTIES 4
Copyright "Copyright (c) 1988 AT&T, Inc"
FONT_ASCENT 10
FONT_DESCENT 3
DEFAULT_CHAR 32
ENDPROPERTIES
CHARS 96
STARTCHAR C001
ENCODING 1
SWIDTH 108 0
DWIDTH 9 0
BBX 9 13 0 -3
BITMAP
0000
0000
0000
0000
0000
0000
0000
0000
0000
0000
0000
0000
0000
ENDCHAR
STARTCHAR C040
ENCODING 32
SWIDTH 84 0
DWIDTH 7 0
BBX 7 13 0 -3
BITMAP
00
00
00
00
00
00
00
00
00
00
00
00
00
ENDCHAR
STARTCHAR !
ENCODING 33
SWIDTH 84 0
DWIDTH 7 0
BBX 7 13 0 -3
BITMAP
00
00
0c
0c
0c
18
18
18
00
30
30
00
00
ENDCHAR
STARTCHAR "
ENCODING 34
SWIDTH 96 0
DWIDTH 8 0
BBX 8 13 0 -3
BITMAP
00
36
36
24
48
00
00
00
00
00
00
00
00
ENDCHAR
STARTCHAR #
ENCODING 35
SWIDTH 132 0
DWIDTH 11 0
BBX 11 13 0 -3
BITMAP
0000
0000
0d80
0d80
3fc0
1b00
1b00
1b00
7f80
3600
3600
0000
0000
ENDCHAR
STARTCHAR $
ENCODING 36
SWIDTH 120 0
DWIDTH 10 0
BBX 10 13 0 -3
BITMAP
0000
0200
0f80
1a00
1a00
1e00
0e00
0f00
0b00
0b00
3e00
0800
0000
ENDCHAR
STARTCHAR %
ENCODING 37
SWIDTH 132 0
DWIDTH 11 0
BBX 11 13 0 -3
BITMAP
0000
0000
3800
6cc0
6d80
3b00
0400
1b80
36c0
66c0
0380
0000
0000
ENDCHAR
STARTCHAR &
ENCODING 38
SWIDTH 132 0
DWIDTH 11 0
BBX 11 13 0 -3
BITMAP
0000
0000
1e00
3300
3300
1a00
3cc0
6cc0
6680
6700
3d80
0000
0000
ENDCHAR
STARTCHAR '
ENCODING 39
SWIDTH 60 0
DWIDTH 5 0
BBX 5 13 0 -3
BITMAP
00
30
30
20
40
00
00
00
00
00
00
00
00
ENDCHAR
STARTCHAR (
ENCODING 40
SWIDTH 84 0
DWIDTH 7 0
BBX 7 13 0 -3
BITMAP
00
0c
18
30
30
60
60
60
60
60
60
30
00
ENDCHAR
STARTCHAR )
ENCODING 41
SWIDTH 72 0
DWIDTH 6 0
BBX 6 13 0 -3
BITMAP
00
30
18
18
18
18
18
18
30
30
60
c0
00
ENDCHAR
STARTCHAR *
ENCODING 42
SWIDTH 96 0
DWIDTH 8 0
BBX 8 13 0 -3
BITMAP
00
00
08
4a
3c
52
10
00
00
00
00
00
00
ENDCHAR
STARTCHAR +
ENCODING 43
SWIDTH 120 0
DWIDTH 10 0
BBX 10 13 0 -3
BITMAP
0000
0000
0000
0400
0400
0400
7f80
0800
0800
0800
0000
0000
0000
ENDCHAR
STARTCHAR ,
ENCODING 44
SWIDTH 60 0
DWIDTH 5 0
BBX 5 13 0 -3
BITMAP
00
00
00
00
00
00
00
00
00
30
30
20
40
ENDCHAR
STARTCHAR -
ENCODING 45
SWIDTH 120 0
DWIDTH 10 0
BBX 10 13 0 -3
BITMAP
0000
0000
0000
0000
0000
0000
3f80
0000
0000
0000
0000
0000
0000
ENDCHAR
STARTCHAR .
ENCODING 46
SWIDTH 60 0
DWIDTH 5 0
BBX 5 13 0 -3
BITMAP
00
00
00
00
00
00
00
00
00
30
30
00
00
ENDCHAR
STARTCHAR /
ENCODING 47
SWIDTH 96 0
DWIDTH 8 0
BBX 8 13 0 -3
BITMAP
00
00
06
06
0c
18
38
30
60
c0
c0
00
00
ENDCHAR
STARTCHAR 0
ENCODING 48
SWIDTH 108 0
DWIDTH 9 0
BBX 9 13 0 -3
BITMAP
0000
0000
1e00
3300
3300
3300
6300
6600
6600
6600
3c00
0000
0000
ENDCHAR
STARTCHAR 1
ENCODING 49
SWIDTH 108 0
DWIDTH 9 0
BBX 9 13 0 -3
BITMAP
0000
0000
0c00
3c00
0c00
0c00
1c00
1800
1800
1800
1800
0000
0000
ENDCHAR
STARTCHAR 2
ENCODING 50
SWIDTH 108 0
DWIDTH 9 0
BBX 9 13 0 -3
BITMAP
0000
0000
1e00
3300
0300
0700
0e00
1800
2000
7e00
7e00
0000
0000
ENDCHAR
STARTCHAR 3
ENCODING 51
SWIDTH 108 0
DWIDTH 9 0
BBX 9 13 0 -3
BITMAP
0000
0000
1e00
3300
0300
0600
1c00
0600
0600
6600
3c00
0000
0000
ENDCHAR
STARTCHAR 4
ENCODING 52
SWIDTH 108 0
DWIDTH 9 0
BBX 9 13 0 -3
BITMAP
0000
0000
0600
0e00
1600
2600
4600
7f00
0c00
0c00
0c00
0000
0000
ENDCHAR
STARTCHAR 5
ENCODING 53
SWIDTH 108 0
DWIDTH 9 0
BBX 9 13 0 -3
BITMAP
0000
0000
1f00
1f00
2000
3c00
0e00
0600
0600
6c00
3800
0000
0000
ENDCHAR
STARTCHAR 6
ENCODING 54
SWIDTH 108 0
DWIDTH 9 0
BBX 9 13 0 -3
BITMAP
0000
0000
0e00
1b00
3000
3000
3c00
6600
6600
6600
3c00
0000
0000
ENDCHAR
STARTCHAR 7
ENCODING 55
SWIDTH 108 0
DWIDTH 9 0
BBX 9 13 0 -3
BITMAP
0000
0000
3f00
3f00
0300
0600
0c00
1800
3000
6000
6000
0000
0000
ENDCHAR
STARTCHAR 8
ENCODING 56
SWIDTH 108 0
DWIDTH 9 0
BBX 9 13 0 -3
BITMAP
0000
0000
1e00
3300
3300
1a00
1c00
2600
6600
6600
3c00
0000
0000
ENDCHAR
STARTCHAR 9
ENCODING 57
SWIDTH 108 0
DWIDTH 9 0
BBX 9 13 0 -3
BITMAP
0000
0000
1e00
3300
3300
3300
1e00
0600
0600
6c00
3800
0000
0000
ENDCHAR
STARTCHAR :
ENCODING 58
SWIDTH 72 0
DWIDTH 6 0
BBX 6 13 0 -3
BITMAP
00
00
00
00
18
18
00
00
00
30
30
00
00
ENDCHAR
STARTCHAR ;
ENCODING 59
SWIDTH 72 0
DWIDTH 6 0
BBX 6 13 0 -3
BITMAP
00
00
00
00
18
18
00
00
00
30
30
20
40
ENDCHAR
STARTCHAR <
ENCODING 60
SWIDTH 108 0
DWIDTH 9 0
BBX 9 13 0 -3
BITMAP
0000
0000
0000
0300
0600
0c00
1800
3000
1800
0c00
0600
0000
0000
ENDCHAR
STARTCHAR =
ENCODING 61
SWIDTH 120 0
DWIDTH 10 0
BBX 10 13 0 -3
BITMAP
0000
0000
0000
0000
0000
3f80
0000
7f00
0000
0000
0000
0000
0000
ENDCHAR
STARTCHAR >
ENCODING 62
SWIDTH 108 0
DWIDTH 9 0
BBX 9 13 0 -3
BITMAP
0000
0000
0000
1800
0c00
0600
0300
0600
0c00
1800
3000
0000
0000
ENDCHAR
STARTCHAR ?
ENCODING 63
SWIDTH 108 0
DWIDTH 9 0
BBX 9 13 0 -3
BITMAP
0000
0000
1e00
0300
0300
0e00
1800
1800
0000
3000
3000
0000
0000
ENDCHAR
STARTCHAR @
ENCODING 64
SWIDTH 132 0
DWIDTH 11 0
BBX 11 13 0 -3
BITMAP
0000
0000
0780
18c0
33c0
24c0
6d80
6d80
6680
3000
1f80
0000
0000
ENDCHAR
STARTCHAR A
ENCODING 65
SWIDTH 96 0
DWIDTH 8 0
BBX 8 13 0 -3
BITMAP
00
00
06
0e
1e
16
26
7e
46
c6
c6
00
00
ENDCHAR
STARTCHAR B
ENCODING 66
SWIDTH 108 0
DWIDTH 9 0
BBX 9 13 0 -3
BITMAP
0000
0000
3e00
3300
3300
3600
7e00
6300
6300
6600
7c00
0000
0000
ENDCHAR
STARTCHAR C
ENCODING 67
SWIDTH 120 0
DWIDTH 10 0
BBX 10 13 0 -3
BITMAP
0000
0000
0700
1d80
3000
3000
6000
6000
6000
7100
3e00
0000
0000
ENDCHAR
STARTCHAR D
ENCODING 68
SWIDTH 120 0
DWIDTH 10 0
BBX 10 13 0 -3
BITMAP
0000
0000
3f00
3380
3180
3180
7180
6300
6300
6600
7c00
0000
0000
ENDCHAR
STARTCHAR E
ENCODING 69
SWIDTH 108 0
DWIDTH 9 0
BBX 9 13 0 -3
BITMAP
0000
0000
3f00
3000
3000
3000
7c00
6000
6000
6000
7e00
0000
0000
ENDCHAR
STARTCHAR F
ENCODING 70
SWIDTH 108 0
DWIDTH 9 0
BBX 9 13 0 -3
BITMAP
0000
0000
3f00
3000
3000
3000
7c00
6000
6000
6000
6000
0000
0000
ENDCHAR
STARTCHAR G
ENCODING 71
SWIDTH 120 0
DWIDTH 10 0
BBX 10 13 0 -3
BITMAP
0000
0000
0700
1d80
3000
3000
6000
6300
6300
7300
3f00
0000
0000
ENDCHAR
STARTCHAR H
ENCODING 72
SWIDTH 120 0
DWIDTH 10 0
BBX 10 13 0 -3
BITMAP
0000
0000
3180
3180
3180
3180
7f80
6300
6300
6300
6300
0000
0000
ENDCHAR
STARTCHAR I
ENCODING 73
SWIDTH 60 0
DWIDTH 5 0
BBX 5 13 0 -3
BITMAP
00
00
30
30
30
30
70
60
60
60
60
00
00
ENDCHAR
STARTCHAR J
ENCODING 74
SWIDTH 72 0
DWIDTH 6 0
BBX 6 13 0 -3
BITMAP
00
00
18
18
18
18
38
30
30
30
30
70
e0
ENDCHAR
STARTCHAR K
ENCODING 75
SWIDTH 120 0
DWIDTH 10 0
BBX 10 13 0 -3
BITMAP
0000
0000
3180
3300
3600
3c00
7800
6c00
6600
6600
6300
0000
0000
ENDCHAR
STARTCHAR L
ENCODING 76
SWIDTH 96 0
DWIDTH 8 0
BBX 8 13 0 -3
BITMAP
00
00
30
30
30
30
70
60
60
60
7e
00
00
ENDCHAR
STARTCHAR M
ENCODING 77
SWIDTH 144 0
DWIDTH 12 0
BBX 12 13 0 -3
BITMAP
0000
0000
3ce0
3ce0
3560
3760
3660
66c0
64c0
60c0
60c0
0000
0000
ENDCHAR
STARTCHAR N
ENCODING 78
SWIDTH 120 0
DWIDTH 10 0
BBX 10 13 0 -3
BITMAP
0000
0000
3080
3880
3880
3d80
2d00
6700
4700
4300
4300
0000
0000
ENDCHAR
STARTCHAR O
ENCODING 79
SWIDTH 132 0
DWIDTH 11 0
BBX 11 13 0 -3
BITMAP
0000
0000
0780
19c0
30c0
30c0
60c0
6180
6180
7300
3c00
0000
0000
ENDCHAR
STARTCHAR P
ENCODING 80
SWIDTH 108 0
DWIDTH 9 0
BBX 9 13 0 -3
BITMAP
0000
0000
3e00
3300
3300
3300
6600
7c00
6000
6000
6000
0000
0000
ENDCHAR
STARTCHAR Q
ENCODING 81
SWIDTH 132 0
DWIDTH 11 0
BBX 11 13 0 -3
BITMAP
0000
0000
0780
19c0
30c0
30c0
60c0
6180
6180
7300
3c00
0700
01c0
ENDCHAR
STARTCHAR R
ENCODING 82
SWIDTH 108 0
DWIDTH 9 0
BBX 9 13 0 -3
BITMAP
0000
0000
3e00
3300
3300
3600
7c00
6c00
6600
6700
6300
0000
0000
ENDCHAR
STARTCHAR S
ENCODING 83
SWIDTH 108 0
DWIDTH 9 0
BBX 9 13 0 -3
BITMAP
0000
0000
1e00
3300
3000
3800
1c00
0e00
0600
6600
3c00
0000
0000
ENDCHAR
STARTCHAR T
ENCODING 84
SWIDTH 120 0
DWIDTH 10 0
BBX 10 13 0 -3
BITMAP
0000
0000
7f80
0c00
0c00
0c00
1c00
1800
1800
1800
1800
0000
0000
ENDCHAR
STARTCHAR U
ENCODING 85
SWIDTH 120 0
DWIDTH 10 0
BBX 10 13 0 -3
BITMAP
0000
0000
3180
3180
3180
3180
7300
6300
6300
7600
3c00
0000
0000
ENDCHAR
STARTCHAR V
ENCODING 86
SWIDTH 108 0
DWIDTH 9 0
BBX 9 13 0 -3
BITMAP
0000
0000
6300
6300
6300
6600
6600
6c00
6800
7000
6000
0000
0000
ENDCHAR
STARTCHAR W
ENCODING 87
SWIDTH 144 0
DWIDTH 12 0
BBX 12 13 0 -3
BITMAP
0000
0000
6060
6660
6660
6640
6ec0
6e80
7680
7700
6600
0000
0000
ENDCHAR
STARTCHAR X
ENCODING 88
SWIDTH 132 0
DWIDTH 11 0
BBX 11 13 0 -3
BITMAP
0000
0000
38c0
18c0
1d80
0d00
0e00
1600
3700
6300
6380
0000
0000
ENDCHAR
STARTCHAR Y
ENCODING 89
SWIDTH 120 0
DWIDTH 10 0
BBX 10 13 0 -3
BITMAP
0000
0000
3180
3180
3300
3300
3600
1c00
1800
1800
1800
0000
0000
ENDCHAR
STARTCHAR Z
ENCODING 90
SWIDTH 120 0
DWIDTH 10 0
BBX 10 13 0 -3
BITMAP
0000
0000
3f80
0380
0700
0e00
1c00
3800
7000
e000
fe00
0000
0000
ENDCHAR
STARTCHAR [
ENCODING 91
SWIDTH 84 0
DWIDTH 7 0
BBX 7 13 0 -3
BITMAP
00
3c
30
30
60
60
60
60
c0
c0
c0
f0
00
ENDCHAR
STARTCHAR \
ENCODING 92
SWIDTH 72 0
DWIDTH 6 0
BBX 6 13 0 -3
BITMAP
00
00
60
60
60
30
30
30
18
18
18
00
00
ENDCHAR
STARTCHAR ]
ENCODING 93
SWIDTH 84 0
DWIDTH 7 0
BBX 7 13 0 -3
BITMAP
00
3c
0c
0c
18
18
18
18
30
30
30
f0
00
ENDCHAR
STARTCHAR ^
ENCODING 94
SWIDTH 120 0
DWIDTH 10 0
BBX 10 13 0 -3
BITMAP
0000
0000
0000
0200
0600
0900
1100
1100
2080
4080
0000
0000
0000
ENDCHAR
STARTCHAR _
ENCODING 95
SWIDTH 108 0
DWIDTH 9 0
BBX 9 13 0 -3
BITMAP
0000
0000
0000
0000
0000
0000
0000
0000
0000
0000
0000
7f00
0000
ENDCHAR
STARTCHAR `
ENCODING 96
SWIDTH 60 0
DWIDTH 5 0
BBX 5 13 0 -3
BITMAP
00
10
20
60
60
00
00
00
00
00
00
00
00
ENDCHAR
STARTCHAR a
ENCODING 97
SWIDTH 108 0
DWIDTH 9 0
BBX 9 13 0 -3
BITMAP
0000
0000
0000
0000
1f00
3300
3300
6300
6600
6e00
7600
0000
0000
ENDCHAR
STARTCHAR b
ENCODING 98
SWIDTH 108 0
DWIDTH 9 0
BBX 9 13 0 -3
BITMAP
0000
1800
1800
1800
3700
3b00
3300
6300
6600
6600
7c00
0000
0000
ENDCHAR
STARTCHAR c
ENCODING 99
SWIDTH 96 0
DWIDTH 8 0
BBX 8 13 0 -3
BITMAP
00
00
00
00
1c
36
60
60
60
60
3c
00
00
ENDCHAR
STARTCHAR d
ENCODING 100
SWIDTH 120 0
DWIDTH 10 0
BBX 10 13 0 -3
BITMAP
0000
0180
0180
0180
1f00
3300
3300
6300
6600
6e00
3600
0000
0000
ENDCHAR
STARTCHAR e
ENCODING 101
SWIDTH 96 0
DWIDTH 8 0
BBX 8 13 0 -3
BITMAP
00
00
00
00
1c
36
66
7c
60
60
3c
00
00
ENDCHAR
STARTCHAR f
ENCODING 102
SWIDTH 96 0
DWIDTH 8 0
BBX 8 13 0 -3
BITMAP
00
0e
18
18
7e
30
30
60
60
60
c0
c0
c0
ENDCHAR
STARTCHAR g
ENCODING 103
SWIDTH 108 0
DWIDTH 9 0
BBX 9 13 0 -3
BITMAP
0000
0000
0000
0000
1f00
3300
3300
6600
6e00
7600
0600
0c00
f800
ENDCHAR
STARTCHAR h
ENCODING 104
SWIDTH 108 0
DWIDTH 9 0
BBX 9 13 0 -3
BITMAP
0000
1800
1800
1800
3700
3b00
3300
3300
6600
6600
6600
0000
0000
ENDCHAR
STARTCHAR i
ENCODING 105
SWIDTH 72 0
DWIDTH 6 0
BBX 6 13 0 -3
BITMAP
00
18
18
00
30
30
30
30
60
60
60
00
00
ENDCHAR
STARTCHAR j
ENCODING 106
SWIDTH 84 0
DWIDTH 7 0
BBX 7 13 0 -3
BITMAP
00
0c
0c
00
18
18
18
18
18
30
30
30
e0
ENDCHAR
STARTCHAR k
ENCODING 107
SWIDTH 108 0
DWIDTH 9 0
BBX 9 13 0 -3
BITMAP
0000
1800
1800
1800
3300
3600
3c00
3800
6c00
6600
6300
0000
0000
ENDCHAR
STARTCHAR l
ENCODING 108
SWIDTH 72 0
DWIDTH 6 0
BBX 6 13 0 -3
BITMAP
00
18
18
18
30
30
30
30
60
60
60
00
00
ENDCHAR
STARTCHAR m
ENCODING 109
SWIDTH 156 0
DWIDTH 13 0
BBX 13 13 0 -3
BITMAP
0000
0000
0000
0000
3770
3bb0
3330
3330
6660
6660
6660
0000
0000
ENDCHAR
STARTCHAR n
ENCODING 110
SWIDTH 108 0
DWIDTH 9 0
BBX 9 13 0 -3
BITMAP
0000
0000
0000
0000
3700
3b00
3300
3300
6600
6600
6600
0000
0000
ENDCHAR
STARTCHAR o
ENCODING 111
SWIDTH 96 0
DWIDTH 8 0
BBX 8 13 0 -3
BITMAP
00
00
00
00
1c
36
66
66
66
6c
38
00
00
ENDCHAR
STARTCHAR p
ENCODING 112
SWIDTH 108 0
DWIDTH 9 0
BBX 9 13 0 -3
BITMAP
0000
0000
0000
0000
3600
3b00
3300
6300
6600
6600
7c00
c000
c000
ENDCHAR
STARTCHAR q
ENCODING 113
SWIDTH 108 0
DWIDTH 9 0
BBX 9 13 0 -3
BITMAP
0000
0000
0000
0000
1f00
3300
3300
6300
6600
6e00
3600
0c00
0c00
ENDCHAR
STARTCHAR r
ENCODING 114
SWIDTH 96 0
DWIDTH 8 0
BBX 8 13 0 -3
BITMAP
00
00
00
00
36
3e
30
70
60
60
60
00
00
ENDCHAR
STARTCHAR s
ENCODING 115
SWIDTH 96 0
DWIDTH 8 0
BBX 8 13 0 -3
BITMAP
00
00
00
00
3c
66
70
38
1c
cc
78
00
00
ENDCHAR
STARTCHAR t
ENCODING 116
SWIDTH 84 0
DWIDTH 7 0
BBX 7 13 0 -3
BITMAP
00
00
18
18
7c
30
30
60
60
60
78
00
00
ENDCHAR
STARTCHAR u
ENCODING 117
SWIDTH 108 0
DWIDTH 9 0
BBX 9 13 0 -3
BITMAP
0000
0000
0000
0000
3300
3300
3300
6600
6600
6e00
3600
0000
0000
ENDCHAR
STARTCHAR v
ENCODING 118
SWIDTH 108 0
DWIDTH 9 0
BBX 9 13 0 -3
BITMAP
0000
0000
0000
0000
3300
3300
3200
3600
3400
3800
3000
0000
0000
ENDCHAR
STARTCHAR w
ENCODING 119
SWIDTH 144 0
DWIDTH 12 0
BBX 12 13 0 -3
BITMAP
0000
0000
0000
0000
3060
3260
3260
3640
36c0
3b80
3300
0000
0000
ENDCHAR
STARTCHAR x
ENCODING 120
SWIDTH 120 0
DWIDTH 10 0
BBX 10 13 0 -3
BITMAP
0000
0000
0000
0000
1980
1900
1a00
1c00
2c00
4c00
cc00
0000
0000
ENDCHAR
STARTCHAR y
ENCODING 121
SWIDTH 108 0
DWIDTH 9 0
BBX 9 13 0 -3
BITMAP
0000
0000
0000
0000
3300
3300
3200
3600
3400
3800
3000
6000
c000
ENDCHAR
STARTCHAR z
ENCODING 122
SWIDTH 108 0
DWIDTH 9 0
BBX 9 13 0 -3
BITMAP
0000
0000
0000
0000
3f00
0700
0e00
1c00
3800
7000
7e00
0000
0000
ENDCHAR
STARTCHAR {
ENCODING 123
SWIDTH 72 0
DWIDTH 6 0
BBX 6 13 0 -3
BITMAP
00
18
30
60
60
30
e0
30
60
c0
c0
60
00
ENDCHAR
STARTCHAR |
ENCODING 124
SWIDTH 72 0
DWIDTH 6 0
BBX 6 13 0 -3
BITMAP
00
00
18
18
18
30
30
30
30
60
60
60
00
ENDCHAR
STARTCHAR }
ENCODING 125
SWIDTH 72 0
DWIDTH 6 0
BBX 6 13 0 -3
BITMAP
00
30
18
18
30
60
38
60
30
30
60
c0
00
ENDCHAR
STARTCHAR ~
ENCODING 126
SWIDTH 132 0
DWIDTH 11 0
BBX 11 13 0 -3
BITMAP
0000
0000
0000
0000
0000
1c40
3f80
4700
0000
0000
0000
0000
0000
ENDCHAR
ENDFONT
